<svg xmlns="http://www.w3.org/2000/svg" width="200" height="200" viewBox="0 0 200 200"><rect width="100%" height="100%" fill="#DDDDDD"/><path fill="#999999" d="M47.095 100.335h4.12q1.52 0 2.65-.38t1.87-1.09q.75-.7 1.12-1.72.37-1.01.37-2.26 0-1.19-.37-2.16-.37-.96-1.1-1.63-.74-.68-1.87-1.04t-2.67-.36h-4.12zm-5.51-14.9h9.63q2.98 0 5.15.69 2.17.7 3.59 1.95 1.41 1.25 2.1 2.99.69 1.75.69 3.82 0 2.15-.72 3.94-.72 1.8-2.15 3.09-1.44 1.29-3.6 2.01t-5.06.72h-4.12v10.43h-5.51zm29.05 9.88.31 2.38q.98-1.89 2.33-2.97 1.36-1.07 3.2-1.07 1.46 0 2.34.63l-.33 3.8q-.1.36-.3.52-.19.15-.52.15-.31 0-.91-.1-.61-.1-1.18-.1-.84 0-1.5.24-.65.25-1.18.71-.52.46-.92 1.12-.4.65-.75 1.49v12.96h-5.06v-21.03h2.97q.78 0 1.09.27.31.28.41 1m20.13-1.6q2.34 0 4.25.76 1.92.76 3.28 2.15 1.37 1.39 2.1 3.4.74 2.01.74 4.49 0 2.5-.74 4.51-.73 2.01-2.1 3.43-1.36 1.41-3.28 2.17-1.91.76-4.25.76-2.36 0-4.29-.76-1.92-.76-3.29-2.17-1.36-1.42-2.11-3.43t-.75-4.51q0-2.48.75-4.49t2.11-3.4q1.37-1.39 3.29-2.15 1.93-.76 4.29-.76m0 17.77q2.62 0 3.88-1.76t1.26-5.17q0-3.4-1.26-5.18-1.26-1.79-3.88-1.79-2.67 0-3.95 1.8-1.28 1.79-1.28 5.17 0 3.39 1.28 5.16t3.95 1.77m20.79 3.59h-5.07v-17.22l-1.82-.29q-.6-.12-.95-.42-.36-.29-.36-.85v-2.07h3.13v-1.56q0-1.8.55-3.24.54-1.43 1.55-2.44 1.02-1 2.47-1.53 1.46-.54 3.28-.54 1.46 0 2.71.39l-.1 2.55q-.02.28-.17.46-.14.17-.38.26-.23.1-.54.13t-.65.03q-.91 0-1.61.19-.71.2-1.2.68-.5.48-.75 1.27-.26.79-.26 1.96v1.39h5.48v3.61h-5.31zm8.32-21.03h5.08v21.03h-5.08zm5.78-6.13q0 .65-.27 1.23-.26.57-.7 1t-1.04.69q-.59.26-1.27.26-.66 0-1.24-.26t-1.01-.69q-.44-.43-.69-1-.26-.58-.26-1.23 0-.68.26-1.27.25-.6.69-1.03.43-.43 1.01-.69.58-.25 1.24-.25.68 0 1.27.25.6.26 1.04.69t.7 1.03q.27.59.27 1.27m4.53-3.3h5.06v30.46h-5.06zm14.13 17.52h9.55q0-.98-.28-1.85t-.83-1.53q-.55-.65-1.4-1.03t-1.98-.38q-2.19 0-3.46 1.25-1.26 1.25-1.6 3.54m12.91 3.06h-13.02q.13 1.62.58 2.8t1.19 1.94q.73.77 1.75 1.15 1.01.38 2.24.38t2.12-.29q.9-.28 1.56-.63.67-.35 1.17-.64.5-.28.98-.28.63 0 .94.47l1.45 1.84q-.84.99-1.88 1.65-1.05.67-2.19 1.07-1.13.4-2.31.56-1.18.17-2.29.17-2.19 0-4.08-.73-1.88-.73-3.28-2.15-1.39-1.43-2.19-3.53t-.8-4.87q0-2.15.7-4.05.69-1.89 2-3.3 1.3-1.4 3.17-2.22 1.88-.82 4.24-.82 1.98 0 3.67.63 1.68.64 2.89 1.86t1.89 2.99q.69 1.78.69 4.05 0 1.15-.25 1.55-.24.4-.94.4"/></svg>